<?xml version="1.0" encoding="utf-8"?>
<!-- Generator: Adobe Illustrator 19.1.0, SVG Export Plug-In . SVG Version: 6.00 Build 0)  -->
<svg version="1.1" id="Layer_1" xmlns="http://www.w3.org/2000/svg" xmlns:xlink="http://www.w3.org/1999/xlink" x="0px" y="0px"
	 viewBox="0 0 600 314" style="enable-background:new 0 0 600 314;" xml:space="preserve">
<style type="text/css">
	.st0{fill:#007EC2;}
	.st1{opacity:0.1;fill:#FFFFFF;}
	.st2{fill:#FFFFFF;}
</style>
<g>
	<circle class="st0" cx="300.1" cy="157.1" r="104.5"/>
	<path class="st1" d="M382.8,93.3c-19.1-24.8-49.1-40.7-82.7-40.7c-57.7,0-104.5,46.8-104.5,104.5c0,15,3.2,29.2,8.8,42.1
		c10.8,2.5,22.1,3.8,33.6,3.8C307,202.9,365.1,156.6,382.8,93.3z"/>
	<g>
		
			<rect x="278.3" y="139.9" transform="matrix(-0.7071 -0.7071 0.7071 -0.7071 375.68 504.401)" class="st2" width="28" height="69"/>
		<rect x="290.8" y="141.2" transform="matrix(0.707 0.7072 -0.7072 0.707 190.4668 -163.285)" class="st2" width="3" height="14"/>
		
			<rect x="303" y="146.4" transform="matrix(-0.7071 -0.7071 0.7071 -0.7071 440.8927 478.3875)" class="st2" width="33" height="3"/>
		<polygon class="st2" points="310.3,133.7 333.7,157.1 347.8,152.8 313.4,118.4 		"/>
		
			<rect x="308.5" y="131.5" transform="matrix(-0.7071 -0.7071 0.7071 -0.7071 474.3308 462.538)" class="st2" width="49" height="3"/>
		
			<rect x="249.7" y="199" transform="matrix(-0.7071 -0.7071 0.7071 -0.7071 306.5383 533.0397)" class="st2" width="28" height="8"/>
		
			<rect x="335.8" y="117.7" transform="matrix(-0.7071 0.7071 -0.7071 -0.7071 676.2538 -41.6375)" class="st2" width="22" height="3"/>
		
			<rect x="343.6" y="128.4" transform="matrix(-0.8972 0.4416 -0.4416 -0.8972 729.6896 90.0309)" class="st2" width="21.6" height="3"/>
		
			<rect x="334.6" y="100.8" transform="matrix(0.8973 0.4414 -0.4414 0.8973 83.7867 -136.876)" class="st2" width="3" height="21.6"/>
	</g>
</g>
</svg>
